<?xml version="1.0" encoding="utf-8"?>
<!-- Generator: Adobe Illustrator 19.0.0, SVG Export Plug-In . SVG Version: 6.00 Build 0)  -->
<svg version="1.1" xmlns="http://www.w3.org/2000/svg" xmlns:xlink="http://www.w3.org/1999/xlink" x="0px" y="0px"
	 viewBox="0 0 100 100" style="enable-background:new 0 0 100 100;" xml:space="preserve">
<style type="text/css">
	.st0{display:none;}
	.st1{display:inline;}
	.st2{fill:#FFFFFF;}
	.st3{fill:#FAFAFA;}
	.st4{fill:none;stroke:#FAFAFA;stroke-width:10;stroke-miterlimit:10;}
</style>
<g id="Layer_4">
</g>
<g id="Layer_2">
	<g id="XMLID_2_" class="st0">
		<g id="XMLID_91_" class="st1">
			<path id="XMLID_92_" class="st2" d="M50,0C22.4,0,0,22.4,0,50c0,27.6,22.4,50,50,50s50-22.4,50-50C100,22.4,77.6,0,50,0z
				 M49.8,95.5C24.5,95.5,4,75,4,49.8S24.5,4,49.8,4s45.8,20.5,45.8,45.7S75,95.5,49.8,95.5z"/>
		</g>
	</g>
</g>
<g id="Layer_5">
	<g id="XMLID_1_">
		<path id="XMLID_32_" class="st3" d="M49.7,0.3C22.2,0.3,0,22.6,0,50c0,27.4,22.2,49.7,49.7,49.7S99.4,77.4,99.4,50
			C99.4,22.6,77.1,0.3,49.7,0.3z M50,94.3c-24.5,0-44.4-19.9-44.4-44.4C5.6,25.3,25.5,5.4,50,5.4c24.5,0,44.4,19.9,44.4,44.4
			C94.4,74.4,74.5,94.3,50,94.3z"/>
		<path id="XMLID_34_" class="st4" d="M80.8,81.8c15.4-15.4,15.4-40.3,0-55.7c-10.6-10.6-27.7-10.6-38.3,0c-7.3,7.3-7.3,19.1,0,26.3
			c5,5,13.1,5,18.1,0c3.4-3.4,3.4-9,0-12.4c-2.4-2.4-6.2-2.4-8.6,0c-1.6,1.6-1.6,4.3,0,5.9c1.1,1.1,2.9,1.1,4,0c0.8-0.8,0.8-2,0-2.8
			"/>
		<path id="XMLID_33_" class="st3" d="M26.1,73.7c0-4.9,2.1-9.2,5.4-12.2c-8.9,0.2-16,7.5-16,16.4c0,9.1,7.3,16.4,16.4,16.4
			c4.1,0,7.8-1.5,10.6-3.9C33.5,90.2,26.1,82.8,26.1,73.7z"/>
		<path id="XMLID_35_" class="st3" d="M21.3,80.4c-5.7-2.5-8.4-9.2-5.8-15c1.3-3,3.8-5.2,6.7-6.2c-5.4-1.8-11.5,0.8-13.8,6.2
			c-2.5,5.7,0.1,12.4,5.8,14.9c2.6,1.2,5.4,1.2,8,0.4C21.8,80.7,21.6,80.6,21.3,80.4z"/>
		<path id="XMLID_36_" class="st3" d="M73.9,25.5c5.5,6.7,8.7,15.3,8.6,24.6c-0.2,21.2-17.3,38.2-38.3,38c-6.5-0.1-12.7-1.8-18-4.7
			c6.9,8.5,17.3,13.9,29,14c21,0.2,38.1-16.9,38.3-38C93.7,44.8,85.7,32,73.9,25.5z"/>
		<circle id="XMLID_39_" class="st3" cx="54.7" cy="43.5" r="4.8"/>
		<path id="XMLID_40_" class="st3" d="M67.7,20.3c8.5,0,15.8,5.4,18.6,12.9c1.4-2.1,2.2-4.7,2.2-7.4c0-7.5-6.1-13.6-13.6-13.6
			c-5.9,0-10.8,3.7-12.8,8.9C63.9,20.6,65.8,20.3,67.7,20.3z"/>
		<path id="XMLID_41_" class="st3" d="M67.5,8.2C58.1,6.3,49.7,7,46,9.6c2.9,0.2,5.9,0.7,9,1.3c13.6,2.7,24.6,8.3,28.2,13.9
			c2.5-0.9,4.1-2.2,4.4-3.8C88.5,16.3,79.5,10.6,67.5,8.2z"/>
	</g>
</g>
<g id="Layer_3">
</g>
</svg>
