<?xml version="1.0" encoding="utf-8"?>
<!-- Generator: Adobe Illustrator 19.0.0, SVG Export Plug-In . SVG Version: 6.00 Build 0)  -->
<svg version="1.1" xmlns="http://www.w3.org/2000/svg" xmlns:xlink="http://www.w3.org/1999/xlink" x="0px" y="0px"
	 viewBox="0 0 100 100" style="enable-background:new 0 0 100 100;" xml:space="preserve">
<style type="text/css">
	.st0{fill:#FAFAFA;}
</style>
<g id="Layer_1">
</g>
<g id="Layer_2">
</g>
<g id="Layer_3">
</g>
<g id="Layer_5">
</g>
<g id="Layer_7">
</g>
<g id="Layer_8">
	<g id="XMLID_82_">
		<path id="XMLID_83_" class="st0" d="M50,0C22.4,0,0,22.4,0,50c0,18,9.5,33.8,23.9,42.6c-3.2-2.4-5.5-6-6-10.1c0,0,0,0,0,0
			c-1.6,0.2-3.2-0.1-4.8-0.7c-4.8-2.1-6.9-7.7-4.8-12.4c0-0.1,0.1-0.1,0.1-0.2C5.5,63.2,4,56.7,4,49.8C4,24.5,24.5,4,49.8,4
			c15.9,0,29.8,8.1,38,20.3c6.2,7.7,9.9,17.5,9.9,28.2c0,24.9-20.2,45.2-45.2,45.2c-5.5,0-10.7-1-15.6-2.8c-1.3,0.4-2.8,0.6-4.2,0.6
			c-2,0-4-0.4-5.7-1.1C33.8,98,41.7,100,50,100c27.6,0,50-22.4,50-50C100,22.4,77.6,0,50,0z"/>
	</g>
</g>
</svg>
